<svg width="800" height="520" viewBox="0 0 800 520" fill="none" xmlns="http://www.w3.org/2000/svg">
  <defs>
    <linearGradient id="g1" x1="120" y1="60" x2="680" y2="460" gradientUnits="userSpaceOnUse">
      <stop stop-color="#7C3AED"/>
      <stop offset="1" stop-color="#EC4899"/>
    </linearGradient>
  </defs>
  <rect width="800" height="520" rx="36" fill="#111827"/>
  <circle cx="640" cy="120" r="110" fill="url(#g1)" fill-opacity="0.2"/>
  <circle cx="160" cy="420" r="130" fill="#EC4899" fill-opacity="0.12"/>
  <rect x="112" y="112" width="576" height="292" rx="28" fill="#0F172A" stroke="#334155"/>
  <rect x="152" y="150" width="220" height="16" rx="8" fill="#E2E8F0" fill-opacity="0.9"/>
  <rect x="152" y="182" width="280" height="12" rx="6" fill="#94A3B8" fill-opacity="0.8"/>
  <rect x="152" y="246" width="190" height="16" rx="8" fill="url(#g1)"/>
  <rect x="152" y="278" width="360" height="12" rx="6" fill="#94A3B8" fill-opacity="0.85"/>
  <rect x="152" y="304" width="320" height="12" rx="6" fill="#94A3B8" fill-opacity="0.65"/>
  <rect x="152" y="340" width="140" height="42" rx="21" fill="#38BDF8"/>
  <path d="M604 186C630 196 644 218 644 246C644 292 613 326 560 326H532V170H560C578 170 591 174 604 186Z" fill="#1E293B" stroke="url(#g1)" stroke-width="4"/>
  <path d="M560 186V310" stroke="#E2E8F0" stroke-width="10" stroke-linecap="round"/>
  <path d="M532 210H592" stroke="#E2E8F0" stroke-width="10" stroke-linecap="round"/>
  <path d="M532 246H588" stroke="#E2E8F0" stroke-width="10" stroke-linecap="round"/>
</svg>
