<svg width="800" height="520" viewBox="0 0 800 520" fill="none" xmlns="http://www.w3.org/2000/svg">
  <defs>
    <linearGradient id="g1" x1="0" y1="0" x2="800" y2="520" gradientUnits="userSpaceOnUse">
      <stop stop-color="#1D4ED8"/>
      <stop offset="1" stop-color="#38BDF8"/>
    </linearGradient>
  </defs>
  <rect width="800" height="520" rx="36" fill="#0F172A"/>
  <rect x="0" y="0" width="220" height="520" rx="36" fill="#EF4444"/>
  <circle cx="520" cy="190" r="126" fill="url(#g1)" fill-opacity="0.22"/>
  <rect x="276" y="122" width="382" height="84" rx="20" fill="#111827" stroke="#334155"/>
  <rect x="306" y="150" width="210" height="14" rx="7" fill="#E2E8F0"/>
  <rect x="306" y="176" width="146" height="10" rx="5" fill="#94A3B8"/>
  <rect x="276" y="240" width="382" height="152" rx="24" fill="#111827" stroke="#334155"/>
  <rect x="316" y="276" width="116" height="16" rx="8" fill="#38BDF8"/>
  <rect x="316" y="308" width="236" height="12" rx="6" fill="#94A3B8" fill-opacity="0.9"/>
  <rect x="316" y="334" width="194" height="12" rx="6" fill="#94A3B8" fill-opacity="0.7"/>
  <path d="M594 310L648 276L648 350H594V310Z" fill="#22C55E"/>
  <path d="M607 330L626 310L643 327L663 310" stroke="#E2E8F0" stroke-width="10" stroke-linecap="round" stroke-linejoin="round"/>
</svg>
